<svg xmlns="http://www.w3.org/2000/svg" width="30.665" height="33.633" viewBox="0 0 30.665 33.633">
  <g id="second" transform="translate(0 0.165)">
    <g id="Component_1_1" data-name="Component 1 – 1">
      <path id="Path_2" data-name="Path 2" d="M1001.732,295.72s-4.47-1.647-4-11.057" transform="translate(-994 -271.762)" fill="none" stroke="#707070" stroke-width="1"/>
      <g id="Rectangle_1" data-name="Rectangle 1" transform="translate(0 6.238)" fill="none" stroke="#707070" stroke-width="1">
        <rect width="7" height="7" stroke="none"/>
        <rect x="0.5" y="0.5" width="6" height="6" fill="none"/>
      </g>
      <path id="Path_3" data-name="Path 3" d="M999.171,271.762s-1.529,4.384-1.269,6.777" transform="translate(-994 -271.762)" fill="none" stroke="#707070" stroke-width="1"/>
    </g>
    <g id="Polygon_1" data-name="Polygon 1" transform="translate(8.458 16.785) rotate(-43)" fill="#707070">
      <path d="M 8.25523567199707 10.5 L 0.7447645664215088 10.5 L 4.5 1.32053554058075 L 8.25523567199707 10.5 Z" stroke="none"/>
      <path d="M 4.5 2.641085624694824 L 1.489534854888916 10 L 7.510465145111084 10 L 4.5 2.641085624694824 M 4.5 0 L 9 11 L 0 11 L 4.5 0 Z" stroke="none" fill="#707070"/>
    </g>
    <g id="Polygon_2" data-name="Polygon 2" transform="translate(30.665 25.69) rotate(135)" fill="#707070">
      <path d="M 9.863381385803223 5.5 L 1.136618375778198 5.5 L 5.5 0.7399472594261169 L 9.863381385803223 5.5 Z" stroke="none"/>
      <path d="M 5.5 1.479883670806885 L 2.273226737976074 5 L 8.726773262023926 5 L 5.5 1.479883670806885 M 5.5 0 L 11 6 L 0 6 L 5.5 0 Z" stroke="none" fill="#707070"/>
    </g>
  </g>
</svg>