<svg xmlns="http://www.w3.org/2000/svg" xmlns:xlink="http://www.w3.org/1999/xlink" id="e6BS51JN4hw1" viewBox="0 0 480 480" shape-rendering="geometricPrecision" text-rendering="geometricPrecision"><g id="e6BS51JN4hw2" transform="matrix(0.879723 0.475486 -0.475486 0.879723 171.399733 -37.589214)"><g id="e6BS51JN4hw3"><path id="e6BS51JN4hw4" d="M296,280L287.2,280C283.89,280.006,280.929,277.941,279.792,274.832C278.816,272.272,277.768,269.768,276.64,267.288C275.238,264.272,275.878,260.701,278.24,258.36L284.512,252.08C293.823,242.687,293.806,227.539,284.472,218.168L261.864,195.56C252.481,186.232,237.327,186.232,227.944,195.56L221.672,201.824C219.326,204.177,215.761,204.816,212.744,203.424C210.264,202.296,207.76,201.248,205.192,200.224C202.067,199.095,199.988,196.123,200,192.8L200,184C200,170.745,189.255,160,176,160L144,160C130.745,160,120,170.745,120,184L120,192.8C120.006,196.11,117.941,199.071,114.832,200.208C112.272,201.184,109.768,202.232,107.288,203.36C104.271,204.755,100.705,204.116,98.36,201.76L92.08,195.488C82.698,186.166,67.55,186.166,58.168,195.488L35.56,218.168C26.232,227.551,26.232,242.705,35.56,252.088L41.824,258.36C44.186,260.701,44.826,264.272,43.424,267.288C42.296,269.768,41.248,272.272,40.264,274.84C39.119,277.967,36.13,280.034,32.8,280L24,280C10.745,280,0,290.745,0,304L0,336C0,349.255,10.745,360,24,360L32.8,360C36.11,359.994,39.071,362.059,40.208,365.168C41.184,367.728,42.232,370.232,43.36,372.712C44.762,375.728,44.122,379.299,41.76,381.64L35.488,387.92C26.166,397.302,26.166,412.45,35.488,421.832L58.096,444.44C67.479,453.768,82.633,453.768,92.016,444.44L98.288,438.176C100.634,435.823,104.199,435.184,107.216,436.576C109.696,437.704,112.2,438.752,114.768,439.776C117.909,440.892,120.006,443.867,120,447.2L120,456C120,469.255,130.745,480,144,480L176,480C189.255,480,200,469.255,200,456L200,447.2C199.994,443.89,202.059,440.929,205.168,439.792C207.728,438.816,210.232,437.768,212.712,436.64C215.729,435.245,219.295,435.884,221.64,438.24L227.92,444.512C237.315,453.819,252.459,453.801,261.832,444.472L284.44,421.864C293.768,412.481,293.768,397.327,284.44,387.944L278.176,381.672C275.814,379.331,275.174,375.76,276.576,372.744C277.704,370.264,278.752,367.76,279.776,365.192C280.905,362.067,283.877,359.988,287.2,360L296,360C309.255,360,320,349.255,320,336L320,304C320,290.745,309.255,280,296,280ZM304,336C304,340.418,300.418,344,296,344L287.2,344C277.255,344.037,268.355,350.184,264.8,359.472C263.952,361.712,263.035,363.917,262.048,366.088C257.935,375.168,259.843,385.844,266.848,392.936L273.104,399.2C276.23,402.322,276.233,407.388,273.11,410.514C273.108,410.516,273.106,410.518,273.104,410.52L250.496,433.128C247.372,436.251,242.308,436.251,239.184,433.128L232.912,426.864C225.823,419.853,215.143,417.944,206.064,422.064C203.896,423.048,201.688,423.968,199.464,424.816C190.183,428.37,184.04,437.262,184,447.2L184,456C184,460.418,180.418,464,176,464L144,464C139.582,464,136,460.418,136,456L136,447.2C135.963,437.255,129.816,428.355,120.528,424.8C118.288,423.952,116.083,423.035,113.912,422.048C104.832,417.937,94.157,419.846,87.064,426.848L80.8,433.104C77.678,436.23,72.612,436.233,69.486,433.11C69.484,433.108,69.482,433.106,69.48,433.104L46.872,410.52C43.749,407.396,43.749,402.332,46.872,399.208L53.136,392.936C60.141,385.844,62.049,375.168,57.936,366.088C56.952,363.92,56.032,361.712,55.184,359.488C51.638,350.197,42.744,344.044,32.8,344L24,344C19.582,344,16,340.418,16,336L16,304C16,299.582,19.582,296,24,296L32.8,296C42.745,295.963,51.645,289.816,55.2,280.528C56.048,278.288,56.965,276.083,57.952,273.912C62.065,264.832,60.156,254.156,53.152,247.064L46.864,240.8C43.738,237.678,43.735,232.612,46.858,229.486C46.86,229.484,46.862,229.482,46.864,229.48L69.472,206.872C72.596,203.749,77.66,203.749,80.784,206.872L87.056,213.136C94.145,220.147,104.825,222.056,113.904,217.936C116.072,216.952,118.28,216.032,120.504,215.184C129.798,211.641,135.955,202.746,136,192.8L136,184C136,179.582,139.582,176,144,176L176,176C180.418,176,184,179.582,184,184L184,192.8C184.037,202.745,190.184,211.645,199.472,215.2C201.712,216.048,203.917,216.965,206.088,217.952C215.167,222.072,225.847,220.163,232.936,213.152L239.2,206.896C242.336,203.794,247.384,203.794,250.52,206.896L273.128,229.504C276.251,232.628,276.251,237.692,273.128,240.816L266.864,247.088C259.86,254.18,257.951,264.856,262.064,273.936C263.048,276.104,263.968,278.312,264.816,280.536C268.37,289.817,277.262,295.96,287.2,296L296,296C300.418,296,304,299.582,304,304L304,336Z" fill="rgb(24,65,179)" stroke="none" stroke-width="1"/></g></g><g id="e6BS51JN4hw5" transform="matrix(0.944457 0.328634 -0.328634 0.944457 80.356454 -34.822382)"><g id="e6BS51JN4hw6"><path id="e6BS51JN4hw7" d="M231.84,316.8C231.76,314.88,231.624,312.968,231.392,311.064C231.136,309.016,230.832,306.984,230.408,304.992C230.128,303.688,229.76,302.4,229.408,301.104C228.96,299.456,228.456,297.832,227.896,296.232C227.504,295.12,227.096,294.016,226.68,292.92C225.65,290.358,224.472,287.857,223.152,285.432C223.048,285.248,222.984,285.048,222.88,284.864C220.799,281.16,218.389,277.649,215.68,274.376C215.448,274.088,215.184,273.816,214.944,273.536C213.84,272.232,212.704,270.968,211.512,269.76C210.888,269.112,210.232,268.504,209.576,267.88C208.776,267.136,207.976,266.4,207.176,265.696C206.205,264.853,205.216,264.037,204.208,263.248L202.896,262.272C190.517,253,175.466,247.992,160,248C159.2,248,158.4,248.12,157.6,248.152C155.896,248.2,154.184,248.296,152.464,248.472C151.56,248.568,150.648,248.672,149.744,248.8C147.136,249.143,144.548,249.627,141.992,250.248C103.471,260.202,80.313,299.5,90.267,338.021C96.827,363.405,116.659,383.221,142.048,389.76C142.176,389.76,142.312,389.8,142.448,389.832C145.211,390.521,148.01,391.056,150.832,391.432C152.696,391.664,154.56,391.712,156.432,391.8C157.68,391.864,158.832,392.048,160.136,392.048C162.416,392.048,164.784,391.896,167.2,391.656C167.456,391.656,167.712,391.584,168,391.552C169.944,391.336,171.912,391.048,173.92,390.648C174.72,390.496,175.464,390.296,176.232,390.12C177.64,389.792,179.04,389.448,180.48,389.024C181.6,388.688,182.688,388.296,183.784,387.912C184.88,387.528,186.016,387.112,187.152,386.68C188.288,386.248,189.24,385.752,190.272,385.272C191.616,384.656,192.952,384.048,194.272,383.328L194.32,383.328C201.786,379.331,208.682,374.351,214.824,368.52C216.483,366.972,217.926,365.206,219.112,363.272C225.356,353.262,229.458,342.067,231.16,330.392C231.384,328.848,231.584,327.304,231.704,325.728C231.816,324.28,231.896,322.84,231.928,321.4C231.928,320.944,231.992,320.512,231.992,320.056C232,318.928,231.888,317.888,231.84,316.8ZM215.896,322.04C215.896,322.704,215.84,323.368,215.8,324.024C215.656,325.96,215.408,327.896,215.08,329.84C212.09,346.473,201.763,360.873,186.968,369.04C185.976,369.56,185,370.048,184.024,370.496L183.36,370.816C178.712,372.926,173.806,374.411,168.768,375.232C168.416,375.288,168.056,375.352,167.696,375.4C166.696,375.544,165.712,375.664,164.736,375.752C163.448,375.864,162.152,375.928,160.832,375.952C160.272,375.952,159.72,375.952,159.16,375.952C157.267,375.93,155.377,375.813,153.496,375.6L152.536,375.488C150.336,375.2,148.154,374.789,146,374.256C116.038,366.587,97.966,336.081,105.634,306.119C110.701,286.321,126.151,270.855,145.944,265.768L145.944,265.76C150.54,264.601,155.26,264.009,160,264C162.287,264.013,164.572,264.168,166.84,264.464C167.448,264.536,168.048,264.648,168.648,264.736C170.376,265.008,172.088,265.352,173.776,265.784C174.328,265.928,174.88,266.056,175.424,266.208C179.678,267.436,183.773,269.16,187.624,271.344C188.24,271.704,188.84,272.08,189.448,272.456C190.712,273.256,191.936,274.056,193.144,274.968C193.792,275.44,194.448,275.904,195.072,276.408C196.642,277.662,198.145,278.997,199.576,280.408C200.144,280.984,200.664,281.616,201.216,282.216C202.136,283.216,203.032,284.24,203.888,285.32C204.48,286.064,205.048,286.832,205.608,287.608C206.408,288.76,207.208,289.96,207.928,291.176C208.328,291.84,208.728,292.488,209.136,293.168C210.168,295.067,211.087,297.025,211.888,299.032C212.208,299.832,212.48,300.632,212.768,301.432C213.288,302.904,213.736,304.392,214.128,305.896C214.328,306.696,214.552,307.408,214.72,308.184C215.187,310.346,215.526,312.534,215.736,314.736C215.784,315.32,215.784,315.912,215.824,316.496C215.936,318.336,215.968,320.184,215.896,322.04Z" fill="rgb(24,65,179)" stroke="none" stroke-width="1"/></g></g><g id="e6BS51JN4hw8"><g id="e6BS51JN4hw9"><path id="e6BS51JN4hw10" d="M456,168L430.84,168C427.485,168.034,424.484,165.921,423.384,162.752C420.903,155.321,417.901,148.073,414.4,141.064C412.914,138.037,413.533,134.398,415.936,132.032L433.776,114.168C443.14,104.797,443.14,89.611,433.776,80.24L399.76,46.28C390.389,36.916,375.203,36.916,365.832,46.28L348,64.104C345.637,66.506,342.003,67.128,338.976,65.648C331.966,62.129,324.716,59.111,317.28,56.616C314.098,55.527,311.97,52.523,312,49.16L312,24C312,10.745,301.255,0,288,0L240,0C226.745,0,216,10.745,216,24L216,49.16C216.034,52.515,213.922,55.516,210.752,56.616C203.32,59.11,196.072,62.126,189.064,65.64C186.037,67.131,182.396,66.512,180.032,64.104L162.168,46.264C152.786,36.927,137.622,36.927,128.24,46.264L94.288,80.216C84.919,89.588,84.919,104.78,94.288,114.152L120.52,140.432C123.693,143.506,128.758,143.426,131.832,140.252C134.831,137.156,134.838,132.24,131.848,129.136L105.6,102.864C102.477,99.74,102.477,94.676,105.6,91.552L139.552,57.6C142.676,54.477,147.74,54.477,150.864,57.6L168.736,75.44C175.967,82.714,187.047,84.532,196.224,79.952C202.561,76.779,209.113,74.055,215.832,71.8C225.53,68.517,232.042,59.399,232,49.16L232,24C232,19.582,235.582,16,240,16L288,16C292.418,16,296,19.582,296,24L296,49.16C295.959,59.397,302.471,68.512,312.168,71.792C318.89,74.048,325.445,76.774,331.784,79.952C340.963,84.508,352.028,82.688,359.264,75.432L377.136,57.6C380.26,54.477,385.324,54.477,388.448,57.6L422.4,91.56C425.518,94.683,425.518,99.741,422.4,102.864L404.56,120.736C397.293,127.971,395.476,139.046,400.048,148.224C403.221,154.561,405.945,161.113,408.2,167.832C411.481,177.532,420.6,184.044,430.84,184L456,184C460.418,184,464,187.582,464,192L464,240C464,244.418,460.418,248,456,248L430.84,248C420.603,247.959,411.488,254.471,408.208,264.168C405.953,270.89,403.226,277.445,400.048,283.784C395.484,292.962,397.305,304.031,404.568,311.264L422.408,329.136C425.531,332.26,425.531,337.324,422.408,340.448L388.44,374.4C385.317,377.518,380.259,377.518,377.136,374.4L350.848,348.168C347.774,344.994,342.709,344.914,339.536,347.988C336.362,351.062,336.282,356.127,339.356,359.3C339.42,359.366,339.486,359.432,339.552,359.496L365.832,385.728C375.203,395.092,390.389,395.092,399.76,385.728L433.712,351.784C443.081,342.412,443.081,327.22,433.712,317.848L415.896,300C413.496,297.636,412.875,294.003,414.352,290.976C417.871,283.966,420.889,276.716,423.384,269.28C424.473,266.098,427.477,263.97,430.84,264L456,264C469.255,264,480,253.255,480,240L480,192C480,178.745,469.255,168,456,168Z" fill="rgb(24,65,179)" stroke="none" stroke-width="1"/></g></g><g id="e6BS51JN4hw11" style="mix-blend-mode:lighten"><g id="e6BS51JN4hw12"><path id="e6BS51JN4hw13" d="M337.536,142.464C296.898,101.911,231.102,101.911,190.464,142.464C187.395,145.642,187.483,150.707,190.661,153.776C193.761,156.77,198.676,156.77,201.776,153.776C235.911,119.18,291.628,118.807,326.224,152.942C360.82,187.077,361.193,242.794,327.058,277.39C326.782,277.67,326.504,277.948,326.224,278.224C323.046,281.294,322.958,286.358,326.028,289.536C329.098,292.714,334.162,292.802,337.34,289.732C337.406,289.668,337.472,289.602,337.536,289.536C378.089,248.898,378.089,183.102,337.536,142.464Z" fill="rgb(24,65,179)" stroke="none" stroke-width="1"/></g></g><script><![CDATA[!function(t,n){"object"==typeof exports&&"undefined"!=typeof module?module.exports=n():"function"==typeof define&&define.amd?define(n):(t="undefined"!=typeof globalThis?globalThis:t||self).__SVGATOR_PLAYER__=n()}(this,(function(){"use strict";function t(n){return(t="function"==typeof Symbol&&"symbol"==typeof Symbol.iterator?function(t){return typeof t}:function(t){return t&&"function"==typeof Symbol&&t.constructor===Symbol&&t!==Symbol.prototype?"symbol":typeof t})(n)}function n(t,n){if(!(t instanceof n))throw new TypeError("Cannot call a class as a function")}function r(t,n){for(var r=0;r<n.length;r++){var e=n[r];e.enumerable=e.enumerable||!1,e.configurable=!0,"value"in e&&(e.writable=!0),Object.defineProperty(t,e.key,e)}}function e(t,n,e){return n&&r(t.prototype,n),e&&r(t,e),t}function i(t){return(i=Object.setPrototypeOf?Object.getPrototypeOf:function(t){return t.__proto__||Object.getPrototypeOf(t)})(t)}function o(t,n){return(o=Object.setPrototypeOf||function(t,n){return t.__proto__=n,t})(t,n)}function u(t,n){if(n&&("object"==typeof n||"function"==typeof n))return n;if(void 0!==n)throw new TypeError("Derived constructors may only return object or undefined");return function(t){if(void 0===t)throw new ReferenceError("this hasn't been initialised - super() hasn't been called");return t}(t)}function a(t){var n=function(){if("undefined"==typeof Reflect||!Reflect.construct)return!1;if(Reflect.construct.sham)return!1;if("function"==typeof Proxy)return!0;try{return Boolean.prototype.valueOf.call(Reflect.construct(Boolean,[],(function(){}))),!0}catch(t){return!1}}();return function(){var r,e=i(t);if(n){var o=i(this).constructor;r=Reflect.construct(e,arguments,o)}else r=e.apply(this,arguments);return u(this,r)}}function l(t,n,r){return(l="undefined"!=typeof Reflect&&Reflect.get?Reflect.get:function(t,n,r){var e=function(t,n){for(;!Object.prototype.hasOwnProperty.call(t,n)&&null!==(t=i(t)););return t}(t,n);if(e){var o=Object.getOwnPropertyDescriptor(e,n);return o.get?o.get.call(r):o.value}})(t,n,r||t)}var f=s(Math.pow(10,-6));function s(t){var n=arguments.length>1&&void 0!==arguments[1]?arguments[1]:6;if(Number.isInteger(t))return t;var r=Math.pow(10,n);return Math.round((+t+Number.EPSILON)*r)/r}function c(t,n){var r=arguments.length>2&&void 0!==arguments[2]?arguments[2]:f;return Math.abs(t-n)<r}var h=Math.PI/180;function v(t){return t}function y(t,n,r){var e=1-r;return 3*r*e*(t*e+n*r)+r*r*r}function d(){var t=arguments.length>0&&void 0!==arguments[0]?arguments[0]:0,n=arguments.length>1&&void 0!==arguments[1]?arguments[1]:0,r=arguments.length>2&&void 0!==arguments[2]?arguments[2]:1,e=arguments.length>3&&void 0!==arguments[3]?arguments[3]:1;return t<0||t>1||r<0||r>1?null:c(t,n)&&c(r,e)?v:function(i){if(i<=0)return t>0?i*n/t:0===n&&r>0?i*e/r:0;if(i>=1)return r<1?1+(i-1)*(e-1)/(r-1):1===r&&t<1?1+(i-1)*(n-1)/(t-1):1;for(var o,u=0,a=1;u<a;){var l=y(t,r,o=(u+a)/2);if(c(i,l))break;l<i?u=o:a=o}return y(n,e,o)}}function g(){return 1}function p(t){return 1===t?1:0}function m(){var t=arguments.length>0&&void 0!==arguments[0]?arguments[0]:1,n=arguments.length>1&&void 0!==arguments[1]?arguments[1]:0;if(1===t){if(0===n)return p;if(1===n)return g}var r=1/t;return function(t){return t>=1?1:(t+=n*r)-t%r}}function b(t,n,r){return t>=.5?r:n}function w(t,n,r){return 0===t||n===r?n:t*(r-n)+n}function x(t,n,r){var e=w(t,n,r);return e<=0?0:e}function k(t,n,r){return 0===t?n:1===t?r:{x:w(t,n.x,r.x),y:w(t,n.y,r.y)}}function A(t,n,r){var e=function(t,n,r){return Math.round(w(t,n,r))}(t,n,r);return e<=0?0:e>=255?255:e}function S(t,n,r){return 0===t?n:1===t?r:{r:A(t,n.r,r.r),g:A(t,n.g,r.g),b:A(t,n.b,r.b),a:w(t,null==n.a?1:n.a,null==r.a?1:r.a)}}function _(t,n,r){if(0===t)return n;if(1===t)return r;var e=n.length;if(e!==r.length)return b(t,n,r);for(var i=[],o=0;o<e;o++)i.push(S(t,n[o],r[o]));return i}function O(t,n){for(var r=[],e=0;e<t;e++)r.push(n);return r}function M(t,n){if(--n<=0)return t;var r=(t=Object.assign([],t)).length;do{for(var e=0;e<r;e++)t.push(t[e])}while(--n>0);return t}var j,P=function(){function t(r){n(this,t),this.list=r,this.length=r.length}return e(t,[{key:"setAttribute",value:function(t,n){for(var r=this.list,e=0;e<this.length;e++)r[e].setAttribute(t,n)}},{key:"removeAttribute",value:function(t){for(var n=this.list,r=0;r<this.length;r++)n[r].removeAttribute(t)}},{key:"style",value:function(t,n){for(var r=this.list,e=0;e<this.length;e++)r[e].style[t]=n}}]),t}(),E=/-./g,I=function(t,n){return n.toUpperCase()};function F(t){return"function"==typeof t?t:b}function N(t){return t?"function"==typeof t?t:Array.isArray(t)?function(t){var n=arguments.length>1&&void 0!==arguments[1]?arguments[1]:v;if(!Array.isArray(t))return n;switch(t.length){case 1:return m(t[0])||n;case 2:return m(t[0],t[1])||n;case 4:return d(t[0],t[1],t[2],t[3])||n}return n}(t,null):function(t,n){var r=arguments.length>2&&void 0!==arguments[2]?arguments[2]:v;switch(t){case"linear":return v;case"steps":return m(n.steps||1,n.jump||0)||r;case"bezier":case"cubic-bezier":return d(n.x1||0,n.y1||0,n.x2||0,n.y2||0)||r}return r}(t.type,t.value,null):null}function B(t,n,r){var e=arguments.length>3&&void 0!==arguments[3]&&arguments[3],i=n.length-1;if(t<=n[0].t)return e?[0,0,n[0].v]:n[0].v;if(t>=n[i].t)return e?[i,1,n[i].v]:n[i].v;var o,u=n[0],a=null;for(o=1;o<=i;o++){if(!(t>n[o].t)){a=n[o];break}u=n[o]}return null==a?e?[i,1,n[i].v]:n[i].v:u.t===a.t?e?[o,1,a.v]:a.v:(t=(t-u.t)/(a.t-u.t),u.e&&(t=u.e(t)),e?[o,t,r(t,u.v,a.v)]:r(t,u.v,a.v))}function R(t,n){var r=arguments.length>2&&void 0!==arguments[2]?arguments[2]:null;return t&&t.length?"function"!=typeof n?null:("function"!=typeof r&&(r=null),function(e){var i=B(e,t,n);return null!=i&&r&&(i=r(i)),i}):null}function q(t,n){return t.t-n.t}function T(n,r,e,i,o){var u,a="@"===e[0],l="#"===e[0],f=j[e],s=b;switch(a?(u=e.substr(1),e=u.replace(E,I)):l&&(e=e.substr(1)),t(f)){case"function":if(s=f(i,o,B,N,e,a,r,n),l)return s;break;case"string":s=R(i,F(f));break;case"object":if((s=R(i,F(f.i),f.f))&&"function"==typeof f.u)return f.u(r,s,e,a,n)}return s?function(t,n,r){if(arguments.length>3&&void 0!==arguments[3]&&arguments[3])return t instanceof P?function(e){return t.style(n,r(e))}:function(e){return t.style[n]=r(e)};if(Array.isArray(n)){var e=n.length;return function(i){var o=r(i);if(null==o)for(var u=0;u<e;u++)t[u].removeAttribute(n);else for(var a=0;a<e;a++)t[a].setAttribute(n,o)}}return function(e){var i=r(e);null==i?t.removeAttribute(n):t.setAttribute(n,i)}}(r,e,s,a):null}function L(n,r,e,i){if(!i||"object"!==t(i))return null;var o=null,u=null;return Array.isArray(i)?u=function(t){if(!t||!t.length)return null;for(var n=0;n<t.length;n++)t[n].e&&(t[n].e=N(t[n].e));return t.sort(q)}(i):(u=i.keys,o=i.data||null),u?T(n,r,e,u,o):null}function C(t,n,r){if(!r)return null;var e=[];for(var i in r)if(r.hasOwnProperty(i)){var o=L(t,n,i,r[i]);o&&e.push(o)}return e.length?e:null}function z(t,n){if(!n.duration||n.duration<0)return null;var r=function(t,n){if(!n)return null;var r=[];if(Array.isArray(n))for(var e=n.length,i=0;i<e;i++){var o=n[i];if(2===o.length){var u=null;if("string"==typeof o[0])u=t.getElementById(o[0]);else if(Array.isArray(o[0])){u=[];for(var a=0;a<o[0].length;a++)if("string"==typeof o[0][a]){var l=t.getElementById(o[0][a]);l&&u.push(l)}u=u.length?1===u.length?u[0]:new P(u):null}if(u){var f=C(t,u,o[1]);f&&(r=r.concat(f))}}}else for(var s in n)if(n.hasOwnProperty(s)){var c=t.getElementById(s);if(c){var h=C(t,c,n[s]);h&&(r=r.concat(h))}}return r.length?r:null}(t,n.elements);return r?function(t,n){var r=arguments.length>2&&void 0!==arguments[2]?arguments[2]:1/0,e=arguments.length>3&&void 0!==arguments[3]?arguments[3]:1,i=arguments.length>4&&void 0!==arguments[4]&&arguments[4],o=arguments.length>5&&void 0!==arguments[5]?arguments[5]:1,u=t.length,a=e>0?n:0;i&&r%2==0&&(a=n-a);var l=null;return function(f,s){var c=f%n,h=1+(f-c)/n;s*=e,i&&h%2==0&&(s=-s);var v=!1;if(h>r)c=a,v=!0,-1===o&&(c=e>0?0:n);else if(s<0&&(c=n-c),c===l)return!1;l=c;for(var y=0;y<u;y++)t[y](c);return v}}(r,n.duration,n.iterations||1/0,n.direction||1,!!n.alternate,n.fill||1):null}Number.isInteger||(Number.isInteger=function(t){return"number"==typeof t&&isFinite(t)&&Math.floor(t)===t}),Number.EPSILON||(Number.EPSILON=2220446049250313e-31);var D=function(){function t(r,e){var i=arguments.length>2&&void 0!==arguments[2]?arguments[2]:{};n(this,t),this._id=0,this._running=!1,this._rollingBack=!1,this._animations=r,this.duration=e.duration,this.alternate=e.alternate,this.fill=e.fill,this.iterations=e.iterations,this.direction=i.direction||1,this.speed=i.speed||1,this.fps=i.fps||100,this.offset=i.offset||0,this.rollbackStartOffset=0}return e(t,[{key:"_rollback",value:function(){var t=this,n=1/0,r=null;this.rollbackStartOffset=this.offset,this._rollingBack||(this._rollingBack=!0,this._running=!0);this._id=window.requestAnimationFrame((function e(i){if(t._rollingBack){null==r&&(r=i);var o=i-r,u=t.rollbackStartOffset-o,a=Math.round(u*t.speed);if(a>t.duration&&n!=1/0){var l=!!t.alternate&&a/t.duration%2>1,f=a%t.duration;a=(f+=l?t.duration:0)||t.duration}var s=t.fps?1e3/t.fps:0,c=Math.max(0,a);if(c<n-s){t.offset=c,n=c;for(var h=t._animations,v=h.length,y=0;y<v;y++)h[y](c,t.direction)}var d=!1;if(t.iterations>0&&-1===t.fill){var g=t.iterations*t.duration,p=g==a;a=p?0:a,t.offset=p?0:t.offset,d=a>g}a>0&&t.offset>=a&&!d?t._id=window.requestAnimationFrame(e):t.stop()}}))}},{key:"_start",value:function(){var t=this,n=arguments.length>0&&void 0!==arguments[0]?arguments[0]:0,r=-1/0,e=null,i={},o=function o(u){t._running=!0,null==e&&(e=u);var a=Math.round((u-e+n)*t.speed),l=t.fps?1e3/t.fps:0;if(a>r+l&&!t._rollingBack){t.offset=a,r=a;for(var f=t._animations,s=f.length,c=0,h=0;h<s;h++)i[h]?c++:(i[h]=f[h](a,t.direction),i[h]&&c++);if(c===s)return void t._stop()}t._id=window.requestAnimationFrame(o)};this._id=window.requestAnimationFrame(o)}},{key:"_stop",value:function(){this._id&&window.cancelAnimationFrame(this._id),this._running=!1,this._rollingBack=!1}},{key:"play",value:function(){!this._rollingBack&&this._running||(this._rollingBack=!1,this.rollbackStartOffset>this.duration&&(this.offset=this.rollbackStartOffset-(this.rollbackStartOffset-this.offset)%this.duration,this.rollbackStartOffset=0),this._start(this.offset))}},{key:"stop",value:function(){this._stop(),this.offset=0,this.rollbackStartOffset=0;var t=this.direction,n=this._animations;window.requestAnimationFrame((function(){for(var r=0;r<n.length;r++)n[r](0,t)}))}},{key:"reachedToEnd",value:function(){return this.iterations>0&&this.offset>=this.iterations*this.duration}},{key:"restart",value:function(){this._stop(),this.offset=0,this._start()}},{key:"pause",value:function(){this._stop()}},{key:"reverse",value:function(){this.direction=-this.direction}}],[{key:"build",value:function(n,r){return(n=function(t,n){if(j=n,!t||!t.root||!Array.isArray(t.animations))return null;for(var r=document.getElementsByTagName("svg"),e=!1,i=0;i<r.length;i++)if(r[i].id===t.root&&!r[i].svgatorAnimation){(e=r[i]).svgatorAnimation=!0;break}if(!e)return null;var o=t.animations.map((function(t){return z(e,t)})).filter((function(t){return!!t}));return o.length?{element:e,animations:o,animationSettings:t.animationSettings,options:t.options||void 0}:null}(n,r))?{el:n.element,options:n.options||{},player:new t(n.animations,n.animationSettings,n.options)}:null}}]),t}();function Q(t){return s(t)+""}function U(t){var n=arguments.length>1&&void 0!==arguments[1]?arguments[1]:" ";return t&&t.length?t.map(Q).join(n):""}function V(t){return t?null==t.a||t.a>=1?"rgb("+t.r+","+t.g+","+t.b+")":"rgba("+t.r+","+t.g+","+t.b+","+t.a+")":"transparent"}!function(){for(var t=0,n=["ms","moz","webkit","o"],r=0;r<n.length&&!window.requestAnimationFrame;++r)window.requestAnimationFrame=window[n[r]+"RequestAnimationFrame"],window.cancelAnimationFrame=window[n[r]+"CancelAnimationFrame"]||window[n[r]+"CancelRequestAnimationFrame"];window.requestAnimationFrame||(window.requestAnimationFrame=function(n){var r=Date.now(),e=Math.max(0,16-(r-t)),i=window.setTimeout((function(){n(r+e)}),e);return t=r+e,i},window.cancelAnimationFrame=window.clearTimeout)}();var G={f:null,i:function(t,n,r){return 0===t?n:1===t?r:{x:x(t,n.x,r.x),y:x(t,n.y,r.y)}},u:function(t,n){return function(r){var e=n(r);t.setAttribute("rx",Q(e.x)),t.setAttribute("ry",Q(e.y))}}},H={f:null,i:function(t,n,r){return 0===t?n:1===t?r:{width:x(t,n.width,r.width),height:x(t,n.height,r.height)}},u:function(t,n){return function(r){var e=n(r);t.setAttribute("width",Q(e.width)),t.setAttribute("height",Q(e.height))}}},Y=Math.sin,Z=Math.cos,J=Math.acos,K=Math.asin,W=Math.tan,X=Math.atan2,$=Math.PI/180,tt=180/Math.PI,nt=Math.sqrt,rt=function(){function t(){var r=arguments.length>0&&void 0!==arguments[0]?arguments[0]:1,e=arguments.length>1&&void 0!==arguments[1]?arguments[1]:0,i=arguments.length>2&&void 0!==arguments[2]?arguments[2]:0,o=arguments.length>3&&void 0!==arguments[3]?arguments[3]:1,u=arguments.length>4&&void 0!==arguments[4]?arguments[4]:0,a=arguments.length>5&&void 0!==arguments[5]?arguments[5]:0;n(this,t),this.m=[r,e,i,o,u,a],this.i=null,this.w=null,this.s=null}return e(t,[{key:"determinant",get:function(){var t=this.m;return t[0]*t[3]-t[1]*t[2]}},{key:"isIdentity",get:function(){if(null===this.i){var t=this.m;this.i=1===t[0]&&0===t[1]&&0===t[2]&&1===t[3]&&0===t[4]&&0===t[5]}return this.i}},{key:"point",value:function(t,n){var r=this.m;return{x:r[0]*t+r[2]*n+r[4],y:r[1]*t+r[3]*n+r[5]}}},{key:"translateSelf",value:function(){var t=arguments.length>0&&void 0!==arguments[0]?arguments[0]:0,n=arguments.length>1&&void 0!==arguments[1]?arguments[1]:0;if(!t&&!n)return this;var r=this.m;return r[4]+=r[0]*t+r[2]*n,r[5]+=r[1]*t+r[3]*n,this.w=this.s=this.i=null,this}},{key:"rotateSelf",value:function(){var t=arguments.length>0&&void 0!==arguments[0]?arguments[0]:0;if(t%=360){var n=Y(t*=$),r=Z(t),e=this.m,i=e[0],o=e[1];e[0]=i*r+e[2]*n,e[1]=o*r+e[3]*n,e[2]=e[2]*r-i*n,e[3]=e[3]*r-o*n,this.w=this.s=this.i=null}return this}},{key:"scaleSelf",value:function(){var t=arguments.length>0&&void 0!==arguments[0]?arguments[0]:1,n=arguments.length>1&&void 0!==arguments[1]?arguments[1]:1;if(1!==t||1!==n){var r=this.m;r[0]*=t,r[1]*=t,r[2]*=n,r[3]*=n,this.w=this.s=this.i=null}return this}},{key:"skewSelf",value:function(t,n){if(n%=360,(t%=360)||n){var r=this.m,e=r[0],i=r[1],o=r[2],u=r[3];t&&(t=W(t*$),r[2]+=e*t,r[3]+=i*t),n&&(n=W(n*$),r[0]+=o*n,r[1]+=u*n),this.w=this.s=this.i=null}return this}},{key:"resetSelf",value:function(){var t=arguments.length>0&&void 0!==arguments[0]?arguments[0]:1,n=arguments.length>1&&void 0!==arguments[1]?arguments[1]:0,r=arguments.length>2&&void 0!==arguments[2]?arguments[2]:0,e=arguments.length>3&&void 0!==arguments[3]?arguments[3]:1,i=arguments.length>4&&void 0!==arguments[4]?arguments[4]:0,o=arguments.length>5&&void 0!==arguments[5]?arguments[5]:0,u=this.m;return u[0]=t,u[1]=n,u[2]=r,u[3]=e,u[4]=i,u[5]=o,this.w=this.s=this.i=null,this}},{key:"recomposeSelf",value:function(){var t=arguments.length>0&&void 0!==arguments[0]?arguments[0]:null,n=arguments.length>1&&void 0!==arguments[1]?arguments[1]:null,r=arguments.length>2&&void 0!==arguments[2]?arguments[2]:null,e=arguments.length>3&&void 0!==arguments[3]?arguments[3]:null,i=arguments.length>4&&void 0!==arguments[4]?arguments[4]:null;return this.isIdentity||this.resetSelf(),t&&(t.x||t.y)&&this.translateSelf(t.x,t.y),n&&this.rotateSelf(n),r&&(r.x&&this.skewSelf(r.x,0),r.y&&this.skewSelf(0,r.y)),!e||1===e.x&&1===e.y||this.scaleSelf(e.x,e.y),i&&(i.x||i.y)&&this.translateSelf(i.x,i.y),this}},{key:"decompose",value:function(){var t=arguments.length>0&&void 0!==arguments[0]?arguments[0]:0,n=arguments.length>1&&void 0!==arguments[1]?arguments[1]:0,r=this.m,e=r[0]*r[0]+r[1]*r[1],i=[[r[0],r[1]],[r[2],r[3]]],o=nt(e);if(0===o)return{origin:{x:s(r[4]),y:s(r[5])},translate:{x:s(t),y:s(n)},scale:{x:0,y:0},skew:{x:0,y:0},rotate:0};i[0][0]/=o,i[0][1]/=o;var u=r[0]*r[3]-r[1]*r[2]<0;u&&(o=-o);var a=i[0][0]*i[1][0]+i[0][1]*i[1][1];i[1][0]-=i[0][0]*a,i[1][1]-=i[0][1]*a;var l=nt(i[1][0]*i[1][0]+i[1][1]*i[1][1]);if(0===l)return{origin:{x:s(r[4]),y:s(r[5])},translate:{x:s(t),y:s(n)},scale:{x:s(o),y:0},skew:{x:0,y:0},rotate:0};i[1][0]/=l,i[1][1]/=l,a/=l;var f=0;return i[1][1]<0?(f=J(i[1][1])*tt,i[0][1]<0&&(f=360-f)):f=K(i[0][1])*tt,u&&(f=-f),a=X(a,nt(i[0][0]*i[0][0]+i[0][1]*i[0][1]))*tt,u&&(a=-a),{origin:{x:s(r[4]),y:s(r[5])},translate:{x:s(t),y:s(n)},scale:{x:s(o),y:s(l)},skew:{x:s(a),y:0},rotate:s(f)}}},{key:"toString",value:function(){return null===this.s&&(this.s="matrix("+this.m.map((function(t){return s(t)})).join(" ")+")"),this.s}}]),t}();Object.freeze({M:2,L:2,Z:0,H:1,V:1,C:6,Q:4,T:2,S:4,A:7});var et={},it=null;function ot(n){var r=function(){if(it)return it;if("object"!==("undefined"==typeof document?"undefined":t(document))||!document.createElementNS)return{};var n=document.createElementNS("http://www.w3.org/2000/svg","svg");return n&&n.style?(n.style.position="absolute",n.style.opacity="0.01",n.style.zIndex="-9999",n.style.left="-9999px",n.style.width="1px",n.style.height="1px",it={svg:n}):{}}().svg;if(!r)return function(t){return null};var e=document.createElementNS(r.namespaceURI,"path");e.setAttributeNS(null,"d",n),e.setAttributeNS(null,"fill","none"),e.setAttributeNS(null,"stroke","none"),r.appendChild(e);var i=e.getTotalLength();return function(t){var n=e.getPointAtLength(i*t);return{x:n.x,y:n.y}}}function ut(t){return et[t]?et[t]:et[t]=ot(t)}function at(t,n,r,e){if(!t||!e)return!1;var i=["M",t.x,t.y];if(n&&r&&(i.push("C"),i.push(n.x),i.push(n.y),i.push(r.x),i.push(r.y)),n?!r:r){var o=n||r;i.push("Q"),i.push(o.x),i.push(o.y)}return n||r||i.push("L"),i.push(e.x),i.push(e.y),i.join(" ")}function lt(t,n,r,e){var i=arguments.length>4&&void 0!==arguments[4]?arguments[4]:1,o=at(t,n,r,e),u=ut(o);try{return u(i)}catch(t){return null}}function ft(t,n,r,e){var i=1-e;return i*i*t+2*i*e*n+e*e*r}function st(t,n,r,e){return 2*(1-e)*(n-t)+2*e*(r-n)}function ct(t,n,r,e){var i=arguments.length>4&&void 0!==arguments[4]&&arguments[4],o=lt(t,n,null,r,e);return o||(o={x:ft(t.x,n.x,r.x,e),y:ft(t.y,n.y,r.y,e)}),i&&(o.a=ht(t,n,r,e)),o}function ht(t,n,r,e){return Math.atan2(st(t.y,n.y,r.y,e),st(t.x,n.x,r.x,e))}function vt(t,n,r,e,i){var o=i*i;return i*o*(e-t+3*(n-r))+3*o*(t+r-2*n)+3*i*(n-t)+t}function yt(t,n,r,e,i){var o=1-i;return 3*(o*o*(n-t)+2*o*i*(r-n)+i*i*(e-r))}function dt(t,n,r,e,i){var o=arguments.length>5&&void 0!==arguments[5]&&arguments[5],u=lt(t,n,r,e,i);return u||(u={x:vt(t.x,n.x,r.x,e.x,i),y:vt(t.y,n.y,r.y,e.y,i)}),o&&(u.a=gt(t,n,r,e,i)),u}function gt(t,n,r,e,i){return Math.atan2(yt(t.y,n.y,r.y,e.y,i),yt(t.x,n.x,r.x,e.x,i))}function pt(t,n,r){return t+(n-t)*r}function mt(t,n,r){var e=arguments.length>3&&void 0!==arguments[3]&&arguments[3],i={x:pt(t.x,n.x,r),y:pt(t.y,n.y,r)};return e&&(i.a=bt(t,n)),i}function bt(t,n){return Math.atan2(n.y-t.y,n.x-t.x)}function wt(t,n,r){var e=arguments.length>3&&void 0!==arguments[3]&&arguments[3];if(kt(n)){if(At(r))return ct(n,r.start,r,t,e)}else if(kt(r)){if(n.end)return ct(n,n.end,r,t,e)}else{if(n.end)return r.start?dt(n,n.end,r.start,r,t,e):ct(n,n.end,r,t,e);if(r.start)return ct(n,r.start,r,t,e)}return mt(n,r,t,e)}function xt(t,n,r){var e=wt(t,n,r,!0);return e.a=function(t){return arguments.length>1&&void 0!==arguments[1]&&arguments[1]?t+Math.PI:t}(e.a)/h,e}function kt(t){return!t.type||"corner"===t.type}function At(t){return null!=t.start&&!kt(t)}var St=new rt;var _t={f:Q,i:w},Ot={f:Q,i:function(t,n,r){var e=w(t,n,r);return e<=0?0:e>=1?1:e}};function Mt(t,n,r,e,i,o,u,a){return n=function(t,n,r){for(var e,i,o,u=t.length-1,a={},l=0;l<=u;l++)(e=t[l]).e&&(e.e=n(e.e)),e.v&&"g"===(i=e.v).t&&i.r&&(o=r.getElementById(i.r))&&(a[i.r]=o.querySelectorAll("stop"));return a}(t,e,a),function(e){var i,o=r(e,t,jt);return o?"c"===o.t?V(o.v):"g"===o.t?(n[o.r]&&function(t,n){for(var r=0,e=t.length;r<e;r++)t[r].setAttribute("stop-color",V(n[r]))}(n[o.r],o.v),(i=o.r)?"url(#"+i+")":"none"):"none":"none"}}function jt(t,n,r){if(0===t)return n;if(1===t)return r;if(n&&r){var e=n.t;if(e===r.t)switch(n.t){case"c":return{t:e,v:S(t,n.v,r.v)};case"g":if(n.r===r.r)return{t:e,v:_(t,n.v,r.v),r:n.r}}}return b(t,n,r)}var Pt={fill:Mt,"fill-opacity":Ot,stroke:Mt,"stroke-opacity":Ot,"stroke-width":_t,"stroke-dashoffset":{f:Q,i:w},"stroke-dasharray":{f:function(t){var n=arguments.length>1&&void 0!==arguments[1]?arguments[1]:" ";return t&&t.length>0&&(t=t.map((function(t){return s(t,4)}))),U(t,n)},i:function(t,n,r){var e,i,o,u=n.length,a=r.length;if(u!==a)if(0===u)n=O(u=a,0);else if(0===a)a=u,r=O(u,0);else{var l=(o=(e=u)*(i=a)/function(t,n){for(var r;n;)r=n,n=t%n,t=r;return t||1}(e,i))<0?-o:o;n=M(n,Math.floor(l/u)),r=M(r,Math.floor(l/a)),u=a=l}for(var f=[],c=0;c<u;c++)f.push(s(x(t,n[c],r[c])));return f}},opacity:Ot,transform:function(n,r,e,i){if(!(n=function(n,r){if(!n||"object"!==t(n))return null;var e=!1;for(var i in n)n.hasOwnProperty(i)&&(n[i]&&n[i].length?(n[i].forEach((function(t){t.e&&(t.e=r(t.e))})),e=!0):delete n[i]);return e?n:null}(n,i)))return null;var o=function(t,i,o){var u=arguments.length>3&&void 0!==arguments[3]?arguments[3]:null;return n[t]?e(i,n[t],o):r&&r[t]?r[t]:u};return r&&r.a&&n.o?function(t){var r=e(t,n.o,xt);return St.recomposeSelf(r,o("r",t,w,0)+r.a,o("k",t,k),o("s",t,k),o("t",t,k)).toString()}:function(t){return St.recomposeSelf(o("o",t,wt,null),o("r",t,w,0),o("k",t,k),o("s",t,k),o("t",t,k)).toString()}},r:_t,"#size":H,"#radius":G,_:function(t,n){if(Array.isArray(t))for(var r=0;r<t.length;r++)this[t[r]]=n;else this[t]=n}};return function(t){!function(t,n){if("function"!=typeof n&&null!==n)throw new TypeError("Super expression must either be null or a function");t.prototype=Object.create(n&&n.prototype,{constructor:{value:t,writable:!0,configurable:!0}}),n&&o(t,n)}(u,t);var r=a(u);function u(){return n(this,u),r.apply(this,arguments)}return e(u,null,[{key:"build",value:function(t){var n=l(i(u),"build",this).call(this,t,Pt);if(!n)return null;n.el,n.options;var r=n.player;return function(t,n,r){t.play()}(r),r}}]),u}(D)}));
__SVGATOR_PLAYER__.build({"root":"e6BS51JN4hw1","animations":[{"duration":10000,"direction":1,"iterations":0,"fill":1,"alternate":false,"speed":1,"elements":{"e6BS51JN4hw2":{"transform":{"data":{"o":{"x":160,"y":320,"type":"corner"},"t":{"x":-160,"y":-320}},"keys":{"r":[{"t":0,"v":379.185871},{"t":10000,"v":646.7764930472442}]}}},"e6BS51JN4hw5":{"transform":{"data":{"r":379.185871,"t":{"x":-159.975464,"y":-320.023994}},"keys":{"o":[{"t":0,"v":{"x":120.894927,"y":319.999997,"type":"corner"}},{"t":2500,"v":{"x":159.999993,"y":319.999997,"type":"corner"}},{"t":5000,"v":{"x":120.894927,"y":319.999997,"type":"corner"}},{"t":7500,"v":{"x":159.999993,"y":319.999997,"type":"corner"}},{"t":8600,"v":{"x":201.462939,"y":319.274624,"type":"corner"}},{"t":10000,"v":{"x":159.999993,"y":319.999997,"type":"corner"}}]}}}}}],"options":{"start":"load","hover":null,"click":null,"scroll":null,"font":"embed","exportedIds":"unique","svgFormat":"animated","title":"settings"},"animationSettings":{"duration":10000,"direction":1,"iterations":0,"fill":1,"alternate":false,"speed":1}})]]></script></svg>